<svg xmlns="http://www.w3.org/2000/svg" width="48" height="48" fill="none"><path fill="#fff" fill-rule="evenodd" d="M39.087 8.523 29.4 5.927c-.669-.179-1.21.237-1.21.93v10.028c0 .692.541 1.399 1.21 1.578l9.687 2.595c.668.18 1.21-.236 1.21-.929V10.101c0-.693-.541-1.4-1.21-1.578M29.4 2.166c-2.675-.716-4.843.948-4.843 3.717V15.91c0 2.77 2.168 5.596 4.843 6.312l9.687 2.596c2.675.717 4.843-.947 4.843-3.716V11.073c0-2.77-2.168-5.595-4.843-6.312z" clip-rule="evenodd"/><path fill="#fff" fill-rule="evenodd" d="m31.481 16.693-12.108-3.245c-.669-.179-1.211.237-1.211.93v12.535c0 .692.542 1.399 1.21 1.578l12.11 3.245c.668.179 1.21-.237 1.21-.93V18.271c0-.693-.542-1.399-1.21-1.578ZM19.373 9.688c-2.675-.717-4.844.947-4.844 3.716V25.94c0 2.77 2.169 5.595 4.844 6.312l12.108 3.244c2.675.717 4.843-.947 4.843-3.716V19.244c0-2.77-2.168-5.595-4.843-6.312z" clip-rule="evenodd"/><path fill="#fff" fill-rule="evenodd" d="M23.874 24.863 9.344 20.97c-.67-.18-1.211.236-1.211.929V36.94c0 .693.542 1.4 1.21 1.578l14.53 3.894c.67.179 1.211-.237 1.211-.93v-15.04c0-.692-.542-1.399-1.21-1.578Zm-14.53-7.654c-2.676-.717-4.844.947-4.844 3.716v15.043c0 2.77 2.168 5.595 4.843 6.312l14.53 3.893c2.675.717 4.844-.947 4.844-3.716V27.414c0-2.769-2.168-5.595-4.843-6.312L9.344 17.21Z" clip-rule="evenodd"/></svg>