<svg xmlns="http://www.w3.org/2000/svg" width="213" height="48" fill="none"><g fill="#000" clip-path="url(#a)"><path fill-rule="evenodd" d="M4.291 28.602a2.3 2.3 0 0 1 0 3.267l-.046.046a2.33 2.33 0 0 1-3.285 0 2.3 2.3 0 0 1 0-3.266l.046-.047a2.33 2.33 0 0 1 3.285 0m10.92.696a2.3 2.3 0 0 1-.006 3.266l-6.434 6.374c-.909.9-2.38.898-3.285-.006a2.3 2.3 0 0 1 .006-3.266l6.434-6.374c.909-.9 2.38-.898 3.285.006m8.732 10.972a2.33 2.33 0 0 1 3.221-.64l.14.092a2.3 2.3 0 0 1 .644 3.203 2.33 2.33 0 0 1-3.221.64l-.14-.092a2.3 2.3 0 0 1-.644-3.202Zm15.33-11.806a2.3 2.3 0 0 1 0 3.266l-3.16 3.14a2.33 2.33 0 0 1-3.284 0 2.3 2.3 0 0 1 0-3.265l3.159-3.141a2.33 2.33 0 0 1 3.285 0m.047-11.617a2.3 2.3 0 0 1 0 3.266l-23.345 23.21a2.33 2.33 0 0 1-3.285 0 2.3 2.3 0 0 1 0-3.266l23.345-23.21a2.33 2.33 0 0 1 3.285 0m-4.415-7.136a2.3 2.3 0 0 1 0 3.266L21.479 26.326a2.33 2.33 0 0 1-3.285 0 2.3 2.3 0 0 1 0-3.266L31.62 9.71a2.33 2.33 0 0 1 3.285 0Zm-7.086-4.527a2.3 2.3 0 0 1 .002 3.266L10.562 25.632a2.33 2.33 0 0 1-3.285.002 2.3 2.3 0 0 1-.002-3.266L24.534 5.186a2.33 2.33 0 0 1 3.285-.002m-17.091 5.5a2.3 2.3 0 0 1-.006 3.266l-6.76 6.698c-.908.9-2.379.897-3.284-.006a2.3 2.3 0 0 1 .005-3.266l6.76-6.698c.908-.9 2.38-.897 3.285.006M14.868 4a2.316 2.316 0 0 1 2.323 2.31v.23c0 1.276-1.04 2.31-2.323 2.31a2.316 2.316 0 0 1-2.323-2.31v-.23c0-1.276 1.04-2.31 2.323-2.31" clip-rule="evenodd"/><path d="M66.254 23.766c.675.918 1.026 2.052 1.026 3.348 0 1.134-.297 2.133-.864 3.024a5.7 5.7 0 0 1-2.403 2.106c-1.026.513-2.187.756-3.483.756H50V11.67h9.828c2.025 0 3.618.513 4.806 1.539 1.161 1.026 1.755 2.376 1.755 4.077 0 1.134-.27 2.133-.81 2.943a4.34 4.34 0 0 1-2.241 1.728c1.242.27 2.214.89 2.916 1.809m-12.042-3.321h4.239c1.242 0 2.16-.162 2.754-.54s.891-.945.891-1.728c0-.81-.324-1.431-.945-1.836-.621-.378-1.566-.594-2.835-.594h-4.104zm7.776 7.857c.621-.405.945-1.026.945-1.89 0-.783-.324-1.377-.918-1.755s-1.539-.567-2.808-.567h-4.995v4.833h4.887c1.296 0 2.241-.19 2.889-.621m7.515-11.772c-.486-.486-.729-1.08-.729-1.836q0-1.053.73-1.782c.485-.459 1.08-.702 1.835-.702.73 0 1.323.243 1.81.702q.728.729.728 1.782c0 .729-.243 1.323-.729 1.809s-1.08.729-1.809.729c-.756 0-1.35-.216-1.836-.702m-.189 2.43h4.023V33h-4.023zm9.269 13.527a6.8 6.8 0 0 1-2.646-2.673c-.648-1.134-.945-2.403-.945-3.861 0-1.431.297-2.7.945-3.834.621-1.134 1.512-1.998 2.646-2.646 1.134-.621 2.43-.945 3.888-.945s2.754.324 3.888.945a6.9 6.9 0 0 1 2.646 2.646c.648 1.134.972 2.403.972 3.834 0 1.458-.324 2.727-.972 3.86a7.06 7.06 0 0 1-2.673 2.674c-1.134.648-2.43.945-3.86.945-1.459 0-2.755-.297-3.889-.945m6.4-3.645c.647-.756.971-1.701.971-2.89 0-1.16-.324-2.105-.972-2.861-.648-.73-1.485-1.107-2.51-1.107-1.027 0-1.837.378-2.485 1.107-.648.756-.972 1.7-.972 2.862 0 1.188.324 2.133.972 2.889s1.458 1.134 2.484 1.134 1.863-.378 2.511-1.134Zm8.004 3.294c-1.215-.864-1.836-2.08-1.863-3.618h3.969c0 .675.297 1.188.837 1.566q.81.567 2.106.567c.729 0 1.323-.135 1.755-.46.432-.323.675-.701.675-1.133 0-.513-.27-.864-.81-1.08-.54-.19-1.35-.378-2.484-.54q-1.782-.243-2.916-.567a4.2 4.2 0 0 1-1.971-1.215q-.81-.891-.81-2.511c0-1.404.567-2.538 1.755-3.375 1.188-.81 2.808-1.242 4.86-1.242 1.863 0 3.348.459 4.482 1.35 1.134.89 1.755 2.106 1.89 3.645h-3.942c-.054-.675-.297-1.215-.756-1.62-.486-.378-1.107-.594-1.917-.594-.756 0-1.323.162-1.728.459-.432.324-.621.729-.621 1.215s.243.837.756 1.026c.513.216 1.323.378 2.403.486a23 23 0 0 1 2.97.594c.756.216 1.431.648 1.998 1.242.54.594.837 1.458.837 2.592 0 1.404-.594 2.484-1.755 3.294s-2.754 1.215-4.78 1.215q-3.158 0-4.94-1.296"/><path d="M105.535 34.863h1.377q1.296.04 2.106-.324c.513-.243.999-.675 1.458-1.323l-6.345-14.256h4.212l4.212 9.369 3.51-9.369h4.185l-5.724 15.066c-.702 1.647-1.62 2.781-2.781 3.429s-2.646.945-4.482.945h-1.728zm15.386-15.903h3.996v2.025c.486-.756 1.107-1.377 1.917-1.81q1.215-.647 2.835-.647c3.456 0 5.211 2.187 5.211 6.534V33h-4.05v-7.722c0-1.026-.243-1.81-.729-2.403q-.729-.891-2.025-.891c-.972 0-1.755.35-2.322 1.053-.567.702-.837 1.62-.837 2.78V33h-3.996zm21.919 14.148q-1.62 0-2.511-.324c-.621-.216-1.08-.594-1.35-1.161-.297-.567-.432-1.377-.405-2.403v-6.615h-2.997l.253-3.645h2.744v-3.78h3.996v3.78h3.672l-.252 3.645h-3.42v4.563c0 .702.027 1.188.081 1.485a.94.94 0 0 0 .432.675c.216.135.567.189 1.08.189.378 0 1.456-.027 2.077-.081l-.25 3.537a39 39 0 0 1-3.15.135m4.912-21.438h3.996v9.288a5.1 5.1 0 0 1 1.917-1.782q1.215-.648 2.835-.648c3.456 0 5.211 2.187 5.211 6.507V33h-4.05v-7.776c0-1.026-.243-1.81-.729-2.376-.486-.567-1.161-.864-2.025-.864-.972 0-1.755.35-2.322 1.026-.567.702-.837 1.62-.837 2.754V33h-3.996zm18.997 20.817a6.74 6.74 0 0 1-2.619-2.673c-.621-1.134-.918-2.403-.918-3.861 0-1.431.297-2.7.918-3.834s1.485-1.998 2.619-2.646c1.107-.621 2.376-.945 3.807-.945 1.242 0 2.349.324 3.348.918s1.782 1.458 2.376 2.565c.567 1.134.864 2.403.864 3.86v1.297h-9.855c.081.945.405 1.674.945 2.214s1.323.783 2.349.783c.675 0 1.242-.162 1.674-.486s.702-.73.81-1.242h3.996c-.216 1.512-.945 2.727-2.133 3.645s-2.646 1.35-4.374 1.35c-1.431 0-2.7-.297-3.807-.945m6.372-7.776c-.054-.81-.297-1.458-.783-1.971-.486-.486-1.134-.756-1.944-.756-.918 0-1.62.243-2.133.729s-.837 1.16-.945 1.998zm7.03 7.425c-1.215-.864-1.836-2.08-1.863-3.618h3.969c0 .675.297 1.188.837 1.566q.81.567 2.106.567c.729 0 1.323-.135 1.755-.46.432-.323.675-.701.675-1.133 0-.513-.27-.864-.81-1.08-.54-.19-1.35-.378-2.484-.54q-1.782-.243-2.916-.567a4.2 4.2 0 0 1-1.971-1.215q-.81-.891-.81-2.511c0-1.404.567-2.538 1.755-3.375 1.188-.81 2.808-1.242 4.86-1.242 1.863 0 3.348.459 4.482 1.35 1.134.89 1.755 2.106 1.89 3.645h-3.942c-.054-.675-.297-1.215-.756-1.62-.486-.378-1.107-.594-1.917-.594-.756 0-1.323.162-1.728.459-.432.324-.621.729-.621 1.215s.243.837.756 1.026c.513.216 1.323.378 2.403.486 1.188.162 2.187.378 2.97.594.756.216 1.431.648 1.998 1.242.54.594.837 1.458.837 2.592 0 1.404-.594 2.484-1.755 3.294s-2.754 1.215-4.779 1.215q-3.159 0-4.941-1.296m13.31-15.606c-.486-.486-.729-1.08-.729-1.836q0-1.053.729-1.782c.486-.459 1.08-.702 1.836-.702.729 0 1.323.243 1.809.702q.729.729.729 1.782c0 .729-.243 1.323-.729 1.809s-1.08.729-1.809.729c-.756 0-1.35-.216-1.836-.702m-.189 2.43h4.023V33h-4.023zm17.153 13.176c1.215-.864 1.836-2.08 1.863-3.618h-3.969c0 .675-.297 1.188-.837 1.566q-.81.567-2.106.567c-.729 0-1.323-.135-1.755-.46-.432-.323-.675-.701-.675-1.133 0-.513.27-.864.81-1.08.54-.19 1.35-.378 2.484-.54q1.782-.243 2.916-.567a4.2 4.2 0 0 0 1.971-1.215q.81-.891.81-2.511c0-1.404-.567-2.538-1.755-3.375-1.188-.81-2.808-1.242-4.86-1.242-1.863 0-3.348.459-4.482 1.35-1.134.89-1.755 2.106-1.89 3.645h3.942c.054-.675.297-1.215.756-1.62.486-.378 1.107-.594 1.917-.594.756 0 1.323.162 1.728.459.432.324.621.729.621 1.215s-.243.837-.756 1.026c-.513.216-1.323.378-2.403.486a23 23 0 0 0-2.97.594c-.756.216-1.431.648-1.998 1.242-.54.594-.837 1.458-.837 2.592 0 1.404.594 2.484 1.755 3.294s2.754 1.215 4.779 1.215q3.159 0 4.941-1.296"/></g><defs><clipPath id="a"><path fill="#fff" d="M0 0h213v48H0z"/></clipPath></defs></svg>